<?xml version="1.0" encoding="UTF-8" standalone="no"?><!DOCTYPE svg PUBLIC "-//W3C//DTD SVG 1.1//EN" "http://www.w3.org/Graphics/SVG/1.1/DTD/svg11.dtd"><svg width="100%" height="100%" viewBox="0 0 1000 1000" version="1.1" xmlns="http://www.w3.org/2000/svg" xmlns:xlink="http://www.w3.org/1999/xlink" xml:space="preserve" xmlns:serif="http://www.serif.com/" style="fill-rule:evenodd;clip-rule:evenodd;stroke-linecap:round;stroke-linejoin:round;stroke-miterlimit:1.5;"><rect x="817.611" y="478.204" width="26.18" height="66.69" style="fill:#fff;"/><rect x="691.396" y="556.744" width="115.898" height="25.078" style="fill:#fff;"/><path d="M829.736,434.017l0,43.989c0,12.139 -9.855,21.994 -21.994,21.994l-84.431,0c-12.139,0 -21.994,-9.855 -21.994,-21.994l0,-43.989c0,-12.139 9.855,-21.994 21.994,-21.994l84.431,0c12.139,0 21.994,9.855 21.994,21.994Z" style="fill:#fff;fill-opacity:0;stroke:#fff;stroke-width:27.92px;"/><path d="M649.014,433.002l0.362,108.622c0.047,14.012 -11.292,25.389 -25.304,25.389l-84.629,0c-14.012,0 -25.427,-11.376 -25.474,-25.389l-0.362,-108.622c-0.047,-14.012 11.292,-25.389 25.304,-25.389l84.629,0c14.012,0 25.427,11.376 25.474,25.389Z" style="fill:#00f05e;fill-opacity:0;stroke:#fff;stroke-width:27.92px;"/><path d="M355.224,399.92l-65.722,182.018c-1.467,4.064 -5.958,6.172 -10.021,4.704l-5.301,-1.914c-4.064,-1.467 -6.172,-5.958 -4.704,-10.021l65.722,-182.018c1.467,-4.064 5.958,-6.172 10.021,-4.704l5.301,1.914c4.064,1.467 6.172,5.958 4.704,10.021Z" style="fill:#4c94f9;"/><path d="M807.294,581.821l0,-25.078c0,0 8.174,-4.134 10.317,-11.85c2.143,-7.716 26.18,0 26.18,0c0,0 2.625,29.944 -36.497,36.928" style="fill:#fff;"/><path d="M461.129,480.267l5.99,5.99c3.343,3.343 3.343,8.771 -0,12.114l-69.437,69.437c-3.343,3.343 -8.771,3.343 -12.114,0l-5.99,-5.99c-3.343,-3.343 -3.343,-8.771 0,-12.114l69.437,-69.437c3.343,-3.343 8.771,-3.343 12.114,-0Z" style="fill:#4c94f9;"/><path d="M467.12,498.39l-5.99,5.99c-3.343,3.343 -8.771,3.343 -12.114,-0l-69.437,-69.437c-3.343,-3.343 -3.343,-8.771 -0,-12.114l5.99,-5.99c3.343,-3.343 8.771,-3.343 12.114,0l69.437,69.437c3.343,3.343 3.343,8.771 0,12.114Z" style="fill:#4c94f9;"/><path d="M169.104,504.38l-5.99,-5.99c-3.343,-3.343 -3.343,-8.771 -0,-12.114l71.101,-71.101c3.343,-3.343 8.771,-3.343 12.114,0l5.99,5.99c3.343,3.343 3.343,8.771 0,12.114l-71.101,71.101c-3.343,3.343 -8.771,3.343 -12.114,-0Z" style="fill:#4c94f9;"/><path d="M163.114,486.258l5.99,-5.99c3.343,-3.343 8.771,-3.343 12.114,0l69.437,69.437c3.343,3.343 3.343,8.771 0,12.114l-5.99,5.99c-3.343,3.343 -8.771,3.343 -12.114,-0l-69.437,-69.437c-3.343,-3.343 -3.343,-8.771 -0,-12.114Z" style="fill:#4c94f9;"/></svg>